<?xml version="1.0" standalone="no"?>
<!DOCTYPE svg PUBLIC "-//W3C//DTD SVG 20010904//EN"
 "http://www.w3.org/TR/2001/REC-SVG-20010904/DTD/svg10.dtd">
<svg version="1.0" xmlns="http://www.w3.org/2000/svg"
 width="200.000000pt" height="200.000000pt" viewBox="0 0 200.000000 200.000000"
 preserveAspectRatio="xMidYMid meet">

<g transform="translate(0.000000,200.000000) scale(0.100000,-0.100000)"
fill="#000000" stroke="none">
<path d="M1390 1875 c-16 -17 -39 -27 -71 -31 -57 -8 -73 -23 -67 -63 3 -23 0
-32 -19 -40 -41 -19 -114 -94 -139 -143 -13 -26 -34 -88 -45 -137 -23 -99 -42
-125 -99 -135 -46 -8 -60 4 -90 79 -29 75 -100 184 -145 223 -52 46 -114 79
-180 96 -66 18 -175 21 -175 6 0 -5 4 -10 9 -10 15 0 100 -109 107 -137 5 -20
1 -30 -16 -43 -30 -22 -29 -57 4 -104 24 -35 26 -48 26 -136 0 -124 12 -189
50 -267 47 -95 137 -155 280 -187 22 -5 25 -11 25 -46 0 -32 6 -45 28 -63 18
-14 36 -47 52 -96 14 -41 24 -75 22 -76 -1 0 -14 -6 -29 -13 -30 -12 -33 -19
-19 -40 7 -11 14 -11 41 3 26 13 45 16 84 10 87 -13 110 -11 114 6 2 12 -11
19 -55 28 -102 22 -93 10 -93 125 0 99 1 103 28 127 15 14 52 33 83 42 106 32
223 131 272 231 47 97 60 173 54 336 -5 129 -3 149 14 182 22 43 45 58 88 58
37 0 38 6 10 37 -21 21 -21 24 -5 45 65 90 70 100 59 116 -6 10 -21 16 -34 15
-67 -6 -81 -5 -97 10 -26 23 -45 21 -72 -8z m53 -162 l28 -14 -27 -21 c-35
-28 -64 -92 -64 -144 0 -46 -18 -61 -50 -44 -19 10 -40 66 -40 108 0 35 -37
65 -72 58 -39 -8 -28 7 28 40 75 44 136 49 197 17z m-847 -57 c75 -34 154
-118 198 -208 19 -40 38 -84 41 -98 6 -24 3 -26 -52 -38 -55 -11 -153 -62
-153 -79 0 -5 9 -14 19 -20 16 -10 22 -9 33 4 26 32 97 54 191 60 163 9 184
25 216 165 26 111 36 130 77 151 51 25 73 22 80 -10 21 -102 53 -143 111 -143
l33 0 0 -72 c-1 -164 -46 -285 -141 -372 -66 -61 -110 -87 -178 -106 -25 -7
-68 -32 -103 -61 -32 -27 -64 -49 -70 -49 -7 0 -9 18 -6 49 l5 48 -58 11 c-82
15 -170 57 -212 100 -67 68 -97 175 -97 343 0 76 -3 91 -26 124 l-25 38 20 21
c29 31 27 83 -4 128 -14 20 -25 40 -25 44 0 12 70 -4 126 -30z"/>
<path d="M1345 1690 c-8 -14 3 -30 21 -30 8 0 14 9 14 20 0 21 -24 28 -35 10z"/>
<path d="M1194 1228 c-27 -82 -130 -168 -244 -203 -22 -7 -23 -6 -12 8 8 9 12
26 10 39 -3 21 -9 23 -90 30 -54 4 -98 13 -116 24 -32 18 -65 13 -57 -9 11
-28 69 -50 142 -55 73 -5 82 -9 62 -29 -6 -6 -9 -21 -7 -34 3 -21 8 -24 40
-23 49 2 175 62 227 110 50 44 87 105 96 157 6 33 5 37 -13 37 -16 0 -24 -12
-38 -52z"/>
<path d="M240 471 c0 -16 39 -197 75 -348 5 -20 12 -23 59 -23 l53 0 27 103
c15 56 32 120 37 141 14 52 20 41 60 -116 l33 -129 55 3 55 3 36 165 c20 91
40 178 44 193 6 25 4 27 -28 27 -41 0 -37 10 -71 -175 -31 -168 -33 -176 -45
-155 -4 8 -27 86 -50 173 l-43 157 -31 0 -31 0 -44 -162 c-24 -90 -47 -167
-52 -172 -10 -11 -12 -1 -47 184 l-27 145 -33 3 c-26 3 -32 0 -32 -17z"/>
<path d="M1293 458 c-13 -13 -23 -36 -23 -51 0 -19 -5 -27 -18 -27 -10 0 -29
-11 -41 -24 l-23 -25 38 -3 39 -3 3 -100 c3 -119 8 -125 99 -125 61 0 63 1 63
25 0 24 -3 25 -55 25 l-55 0 0 90 0 90 55 0 c52 0 55 1 55 25 0 24 -3 25 -54
25 l-55 0 -3 51 -3 51 -22 -24z"/>
<path d="M860 263 c0 -157 4 -163 107 -163 57 0 81 4 95 17 17 15 18 15 18 0
0 -12 9 -17 30 -17 l30 0 0 141 0 140 -27 -3 -28 -3 -3 -112 -3 -113 -79 0
-79 0 -3 113 -3 112 -27 3 -28 3 0 -118z"/>
<path d="M1480 371 c0 -5 22 -67 49 -137 l48 -129 43 0 42 0 49 125 c27 69 49
131 49 138 0 9 -10 12 -27 10 -26 -3 -31 -11 -63 -112 -20 -60 -41 -111 -47
-113 -8 -3 -26 40 -48 111 -36 113 -38 116 -66 116 -16 0 -29 -4 -29 -9z"/>
</g>
</svg>
